<?xml version="1.0" standalone="no"?>
<!DOCTYPE svg PUBLIC "-//W3C//DTD SVG 20010904//EN"
 "http://www.w3.org/TR/2001/REC-SVG-20010904/DTD/svg10.dtd">
<svg version="1.0" xmlns="http://www.w3.org/2000/svg"
 width="500.000000pt" height="500.000000pt" viewBox="0 0 500.000000 500.000000"
 preserveAspectRatio="xMidYMid meet">
<metadata>
Created by potrace 1.14, written by Peter Selinger 2001-2017
</metadata>
<g transform="translate(0.000000,500.000000) scale(0.100000,-0.100000)"
fill="#000000" stroke="none">
<path d="M1915 4459 c-38 -16 -126 -53 -195 -81 -69 -28 -143 -59 -165 -68
-59 -27 -452 -190 -510 -212 -27 -10 -63 -25 -80 -33 -16 -7 -55 -23 -85 -35
-30 -12 -73 -30 -95 -40 -22 -10 -58 -25 -80 -35 -33 -14 -61 -44 -160 -178
-65 -89 -165 -223 -221 -298 -56 -75 -107 -146 -113 -158 -9 -17 -4 -44 28
-143 46 -145 89 -285 106 -348 7 -25 35 -117 63 -205 27 -88 59 -193 71 -233
26 -88 21 -85 201 -108 62 -8 445 -76 449 -79 2 -2 -14 -53 -35 -114 -21 -61
-36 -112 -34 -113 50 -35 411 -311 462 -353 50 -41 67 -47 125 -41 32 3 94 8
138 11 44 3 96 8 115 10 19 2 67 7 105 10 39 3 86 8 105 10 19 2 65 7 101 10
l67 6 33 -58 c18 -32 38 -67 45 -78 6 -11 54 -92 106 -180 97 -164 131 -221
296 -500 52 -88 100 -165 106 -172 6 -6 62 -14 131 -17 66 -4 155 -9 199 -12
73 -5 78 -4 73 13 -6 19 -40 116 -107 303 -55 154 -81 232 -77 236 1 2 59 -43
129 -99 171 -139 181 -147 188 -147 7 0 121 45 165 65 17 7 66 28 110 45 191
76 226 90 342 137 68 27 125 52 128 55 4 3 8 59 11 125 5 144 13 274 18 282 4
5 324 226 380 261 13 8 61 40 105 70 l82 55 -5 45 c-9 79 -16 143 -21 210 -6
63 -9 97 -20 190 -3 25 -7 65 -10 90 -4 42 -7 68 -20 175 -3 22 -7 78 -10 125
-8 128 -11 137 -94 249 -42 57 -89 122 -105 145 -16 22 -31 43 -35 46 -3 3
-22 28 -41 55 -19 28 -81 113 -138 190 -57 77 -110 149 -118 160 -54 74 -160
218 -190 256 -37 47 -38 47 -159 75 -5 1 -21 5 -35 8 -23 5 -289 73 -690 177
-85 22 -207 53 -270 68 -63 16 -232 59 -375 96 -143 37 -285 73 -315 80 -30 7
-66 15 -80 18 -16 4 -50 -5 -95 -24z"/>
</g>
</svg>
